<mxfile host="Electron" modified="2024-06-05T19:32:32.512Z" agent="Mozilla/5.0 (Windows NT 10.0; Win64; x64) AppleWebKit/537.36 (KHTML, like Gecko) draw.io/24.4.13 Chrome/124.0.6367.207 Electron/30.0.6 Safari/537.36" etag="QgWKEAMtaOLDG67vzaz1" version="24.4.13" type="device">
  <diagram name="Page-1" id="xBdfEz-9WboyrYXsSSGI">
    <mxGraphModel dx="2980" dy="2042" grid="0" gridSize="10" guides="1" tooltips="1" connect="1" arrows="1" fold="1" page="0" pageScale="1" pageWidth="850" pageHeight="1100" math="0" shadow="0">
      <root>
        <mxCell id="0" />
        <mxCell id="1" parent="0" />
        <mxCell id="nuiKF1VjGRspzTlw7c-V-1" value="&lt;font style=&quot;font-size: 18px;&quot;&gt;User_A&lt;/font&gt;" style="rounded=1;whiteSpace=wrap;html=1;" parent="1" vertex="1">
          <mxGeometry x="-163" y="9" width="110" height="80" as="geometry" />
        </mxCell>
        <mxCell id="nuiKF1VjGRspzTlw7c-V-2" value="&lt;font style=&quot;font-size: 18px;&quot;&gt;User_B&lt;/font&gt;" style="rounded=1;whiteSpace=wrap;html=1;" parent="1" vertex="1">
          <mxGeometry x="-163" y="488" width="110" height="80" as="geometry" />
        </mxCell>
        <mxCell id="nuiKF1VjGRspzTlw7c-V-3" value="" style="endArrow=none;html=1;rounded=0;" parent="1" edge="1">
          <mxGeometry width="50" height="50" relative="1" as="geometry">
            <mxPoint x="688" y="928" as="sourcePoint" />
            <mxPoint x="688" y="-686" as="targetPoint" />
          </mxGeometry>
        </mxCell>
        <mxCell id="nuiKF1VjGRspzTlw7c-V-4" value="&lt;font style=&quot;font-size: 10px;&quot;&gt;Encryption and Decryption&lt;/font&gt;" style="rounded=1;whiteSpace=wrap;html=1;direction=south;" parent="1" vertex="1">
          <mxGeometry x="200" y="60" width="60" height="480" as="geometry" />
        </mxCell>
        <mxCell id="nuiKF1VjGRspzTlw7c-V-5" value="" style="endArrow=classic;html=1;rounded=0;exitX=1;exitY=0.5;exitDx=0;exitDy=0;entryX=0.25;entryY=1;entryDx=0;entryDy=0;" parent="1" source="nuiKF1VjGRspzTlw7c-V-1" target="nuiKF1VjGRspzTlw7c-V-4" edge="1">
          <mxGeometry width="50" height="50" relative="1" as="geometry">
            <mxPoint x="400" y="340" as="sourcePoint" />
            <mxPoint x="450" y="290" as="targetPoint" />
          </mxGeometry>
        </mxCell>
        <mxCell id="nuiKF1VjGRspzTlw7c-V-6" value="User_A sends message" style="text;html=1;align=center;verticalAlign=middle;resizable=0;points=[];autosize=1;strokeColor=none;fillColor=none;rotation=29;" parent="1" vertex="1">
          <mxGeometry x="8" y="72" width="145" height="26" as="geometry" />
        </mxCell>
        <mxCell id="nuiKF1VjGRspzTlw7c-V-7" value="" style="endArrow=classic;html=1;rounded=0;exitX=0.25;exitY=0;exitDx=0;exitDy=0;entryX=0;entryY=0.5;entryDx=0;entryDy=0;" parent="1" source="nuiKF1VjGRspzTlw7c-V-4" target="nuiKF1VjGRspzTlw7c-V-11" edge="1">
          <mxGeometry width="50" height="50" relative="1" as="geometry">
            <mxPoint x="450" y="350" as="sourcePoint" />
            <mxPoint x="800" y="180" as="targetPoint" />
          </mxGeometry>
        </mxCell>
        <mxCell id="nuiKF1VjGRspzTlw7c-V-8" value="message is encrypted with User_A and User_B public keys" style="text;html=1;align=center;verticalAlign=middle;resizable=0;points=[];autosize=1;strokeColor=none;fillColor=none;" parent="1" vertex="1">
          <mxGeometry x="310" y="150" width="340" height="30" as="geometry" />
        </mxCell>
        <mxCell id="nuiKF1VjGRspzTlw7c-V-9" value="&lt;font style=&quot;font-size: 36px;&quot;&gt;Client&lt;/font&gt;" style="text;html=1;align=center;verticalAlign=middle;resizable=0;points=[];autosize=1;strokeColor=none;fillColor=none;" parent="1" vertex="1">
          <mxGeometry x="317" y="-659" width="110" height="55" as="geometry" />
        </mxCell>
        <mxCell id="nuiKF1VjGRspzTlw7c-V-10" value="&lt;span style=&quot;color: rgb(240, 240, 240); font-family: Helvetica; font-size: 36px; font-style: normal; font-variant-ligatures: normal; font-variant-caps: normal; font-weight: 400; letter-spacing: normal; orphans: 2; text-align: center; text-indent: 0px; text-transform: none; widows: 2; word-spacing: 0px; -webkit-text-stroke-width: 0px; white-space: nowrap; background-color: rgb(24, 20, 29); text-decoration-thickness: initial; text-decoration-style: initial; text-decoration-color: initial; display: inline !important; float: none;&quot;&gt;Server&lt;/span&gt;" style="text;whiteSpace=wrap;html=1;" parent="1" vertex="1">
          <mxGeometry x="926.0029698988973" y="-663.9952941176471" width="120" height="65" as="geometry" />
        </mxCell>
        <mxCell id="nuiKF1VjGRspzTlw7c-V-32" style="edgeStyle=orthogonalEdgeStyle;rounded=0;orthogonalLoop=1;jettySize=auto;html=1;exitX=1;exitY=0.75;exitDx=0;exitDy=0;entryX=0.5;entryY=0;entryDx=0;entryDy=0;" parent="1" source="nuiKF1VjGRspzTlw7c-V-11" target="nuiKF1VjGRspzTlw7c-V-44" edge="1">
          <mxGeometry relative="1" as="geometry">
            <mxPoint x="1492" y="460" as="targetPoint" />
            <mxPoint x="1396" y="194" as="sourcePoint" />
          </mxGeometry>
        </mxCell>
        <mxCell id="nuiKF1VjGRspzTlw7c-V-33" style="edgeStyle=orthogonalEdgeStyle;rounded=0;orthogonalLoop=1;jettySize=auto;html=1;exitX=1;exitY=0.25;exitDx=0;exitDy=0;entryX=0;entryY=0.5;entryDx=0;entryDy=0;entryPerimeter=0;" parent="1" source="nuiKF1VjGRspzTlw7c-V-11" target="nuiKF1VjGRspzTlw7c-V-34" edge="1">
          <mxGeometry relative="1" as="geometry">
            <mxPoint x="2259" y="-74" as="targetPoint" />
            <Array as="points">
              <mxPoint x="2465" y="165" />
              <mxPoint x="2465" y="-164" />
            </Array>
          </mxGeometry>
        </mxCell>
        <mxCell id="nuiKF1VjGRspzTlw7c-V-11" value="" style="rounded=1;whiteSpace=wrap;html=1;" parent="1" vertex="1">
          <mxGeometry x="1117" y="150" width="394" height="60" as="geometry" />
        </mxCell>
        <mxCell id="nuiKF1VjGRspzTlw7c-V-15" value="&lt;font style=&quot;font-size: 14px;&quot;&gt;channels map contains channels (queues) for each chat._id and group._id&lt;/font&gt;" style="text;html=1;align=center;verticalAlign=middle;resizable=0;points=[];autosize=1;strokeColor=none;fillColor=none;" parent="1" vertex="1">
          <mxGeometry x="756" y="-531" width="477" height="29" as="geometry" />
        </mxCell>
        <mxCell id="nuiKF1VjGRspzTlw7c-V-17" value="&lt;span style=&quot;font-size: 18px; text-wrap: wrap;&quot;&gt;channels&lt;/span&gt;" style="shape=table;startSize=30;container=1;collapsible=1;childLayout=tableLayout;fixedRows=1;rowLines=0;fontStyle=1;align=center;resizeLast=1;html=1;" parent="1" vertex="1">
          <mxGeometry x="904" y="-491" width="180" height="150" as="geometry" />
        </mxCell>
        <mxCell id="nuiKF1VjGRspzTlw7c-V-18" value="" style="shape=tableRow;horizontal=0;startSize=0;swimlaneHead=0;swimlaneBody=0;fillColor=none;collapsible=0;dropTarget=0;points=[[0,0.5],[1,0.5]];portConstraint=eastwest;top=0;left=0;right=0;bottom=1;" parent="nuiKF1VjGRspzTlw7c-V-17" vertex="1">
          <mxGeometry y="30" width="180" height="30" as="geometry" />
        </mxCell>
        <mxCell id="nuiKF1VjGRspzTlw7c-V-19" value="_id" style="shape=partialRectangle;connectable=0;fillColor=none;top=0;left=0;bottom=0;right=0;fontStyle=1;overflow=hidden;whiteSpace=wrap;html=1;" parent="nuiKF1VjGRspzTlw7c-V-18" vertex="1">
          <mxGeometry width="30" height="30" as="geometry">
            <mxRectangle width="30" height="30" as="alternateBounds" />
          </mxGeometry>
        </mxCell>
        <mxCell id="nuiKF1VjGRspzTlw7c-V-20" value="channel" style="shape=partialRectangle;connectable=0;fillColor=none;top=0;left=0;bottom=0;right=0;align=left;spacingLeft=6;fontStyle=5;overflow=hidden;whiteSpace=wrap;html=1;" parent="nuiKF1VjGRspzTlw7c-V-18" vertex="1">
          <mxGeometry x="30" width="150" height="30" as="geometry">
            <mxRectangle width="150" height="30" as="alternateBounds" />
          </mxGeometry>
        </mxCell>
        <mxCell id="nuiKF1VjGRspzTlw7c-V-21" value="" style="shape=tableRow;horizontal=0;startSize=0;swimlaneHead=0;swimlaneBody=0;fillColor=none;collapsible=0;dropTarget=0;points=[[0,0.5],[1,0.5]];portConstraint=eastwest;top=0;left=0;right=0;bottom=0;" parent="nuiKF1VjGRspzTlw7c-V-17" vertex="1">
          <mxGeometry y="60" width="180" height="30" as="geometry" />
        </mxCell>
        <mxCell id="nuiKF1VjGRspzTlw7c-V-22" value="1" style="shape=partialRectangle;connectable=0;fillColor=none;top=0;left=0;bottom=0;right=0;editable=1;overflow=hidden;whiteSpace=wrap;html=1;" parent="nuiKF1VjGRspzTlw7c-V-21" vertex="1">
          <mxGeometry width="30" height="30" as="geometry">
            <mxRectangle width="30" height="30" as="alternateBounds" />
          </mxGeometry>
        </mxCell>
        <mxCell id="nuiKF1VjGRspzTlw7c-V-23" value="channel 1" style="shape=partialRectangle;connectable=0;fillColor=none;top=0;left=0;bottom=0;right=0;align=left;spacingLeft=6;overflow=hidden;whiteSpace=wrap;html=1;" parent="nuiKF1VjGRspzTlw7c-V-21" vertex="1">
          <mxGeometry x="30" width="150" height="30" as="geometry">
            <mxRectangle width="150" height="30" as="alternateBounds" />
          </mxGeometry>
        </mxCell>
        <mxCell id="nuiKF1VjGRspzTlw7c-V-24" value="" style="shape=tableRow;horizontal=0;startSize=0;swimlaneHead=0;swimlaneBody=0;fillColor=none;collapsible=0;dropTarget=0;points=[[0,0.5],[1,0.5]];portConstraint=eastwest;top=0;left=0;right=0;bottom=0;" parent="nuiKF1VjGRspzTlw7c-V-17" vertex="1">
          <mxGeometry y="90" width="180" height="30" as="geometry" />
        </mxCell>
        <mxCell id="nuiKF1VjGRspzTlw7c-V-25" value="2" style="shape=partialRectangle;connectable=0;fillColor=none;top=0;left=0;bottom=0;right=0;editable=1;overflow=hidden;whiteSpace=wrap;html=1;" parent="nuiKF1VjGRspzTlw7c-V-24" vertex="1">
          <mxGeometry width="30" height="30" as="geometry">
            <mxRectangle width="30" height="30" as="alternateBounds" />
          </mxGeometry>
        </mxCell>
        <mxCell id="nuiKF1VjGRspzTlw7c-V-26" value="channel 2" style="shape=partialRectangle;connectable=0;fillColor=none;top=0;left=0;bottom=0;right=0;align=left;spacingLeft=6;overflow=hidden;whiteSpace=wrap;html=1;" parent="nuiKF1VjGRspzTlw7c-V-24" vertex="1">
          <mxGeometry x="30" width="150" height="30" as="geometry">
            <mxRectangle width="150" height="30" as="alternateBounds" />
          </mxGeometry>
        </mxCell>
        <mxCell id="nuiKF1VjGRspzTlw7c-V-27" value="" style="shape=tableRow;horizontal=0;startSize=0;swimlaneHead=0;swimlaneBody=0;fillColor=none;collapsible=0;dropTarget=0;points=[[0,0.5],[1,0.5]];portConstraint=eastwest;top=0;left=0;right=0;bottom=0;" parent="nuiKF1VjGRspzTlw7c-V-17" vertex="1">
          <mxGeometry y="120" width="180" height="30" as="geometry" />
        </mxCell>
        <mxCell id="nuiKF1VjGRspzTlw7c-V-28" value="" style="shape=partialRectangle;connectable=0;fillColor=none;top=0;left=0;bottom=0;right=0;editable=1;overflow=hidden;whiteSpace=wrap;html=1;" parent="nuiKF1VjGRspzTlw7c-V-27" vertex="1">
          <mxGeometry width="30" height="30" as="geometry">
            <mxRectangle width="30" height="30" as="alternateBounds" />
          </mxGeometry>
        </mxCell>
        <mxCell id="nuiKF1VjGRspzTlw7c-V-29" value="" style="shape=partialRectangle;connectable=0;fillColor=none;top=0;left=0;bottom=0;right=0;align=left;spacingLeft=6;overflow=hidden;whiteSpace=wrap;html=1;" parent="nuiKF1VjGRspzTlw7c-V-27" vertex="1">
          <mxGeometry x="30" width="150" height="30" as="geometry">
            <mxRectangle width="150" height="30" as="alternateBounds" />
          </mxGeometry>
        </mxCell>
        <mxCell id="nuiKF1VjGRspzTlw7c-V-30" value="User_A and User_B are friends and they have chat._id&amp;nbsp;&lt;div&gt;and this chat._id have channel. eg: channel 1&lt;/div&gt;" style="text;html=1;align=center;verticalAlign=middle;resizable=0;points=[];autosize=1;strokeColor=none;fillColor=none;" parent="1" vertex="1">
          <mxGeometry x="1163" y="105" width="312" height="41" as="geometry" />
        </mxCell>
        <mxCell id="nuiKF1VjGRspzTlw7c-V-31" value="message is added in channel" style="text;html=1;align=center;verticalAlign=middle;resizable=0;points=[];autosize=1;strokeColor=none;fillColor=none;" parent="1" vertex="1">
          <mxGeometry x="923" y="150" width="173" height="26" as="geometry" />
        </mxCell>
        <mxCell id="nuiKF1VjGRspzTlw7c-V-34" value="" style="strokeWidth=2;html=1;shape=mxgraph.flowchart.database;whiteSpace=wrap;" parent="1" vertex="1">
          <mxGeometry x="2568" y="-295" width="249" height="262" as="geometry" />
        </mxCell>
        <mxCell id="nuiKF1VjGRspzTlw7c-V-35" value="&lt;font style=&quot;font-size: 24px;&quot;&gt;Database&lt;/font&gt;" style="text;html=1;align=center;verticalAlign=middle;resizable=0;points=[];autosize=1;strokeColor=none;fillColor=none;" parent="1" vertex="1">
          <mxGeometry x="2632" y="-276" width="121" height="41" as="geometry" />
        </mxCell>
        <mxCell id="nuiKF1VjGRspzTlw7c-V-36" value="Message is saved in db" style="text;html=1;align=center;verticalAlign=middle;resizable=0;points=[];autosize=1;strokeColor=none;fillColor=none;" parent="1" vertex="1">
          <mxGeometry x="2239" y="-113" width="143" height="26" as="geometry" />
        </mxCell>
        <mxCell id="nuiKF1VjGRspzTlw7c-V-37" value="" style="endArrow=none;html=1;rounded=0;exitX=0.806;exitY=0.996;exitDx=0;exitDy=0;exitPerimeter=0;" parent="1" edge="1">
          <mxGeometry width="50" height="50" relative="1" as="geometry">
            <mxPoint x="1347.002" y="210" as="sourcePoint" />
            <mxPoint x="1347.17" y="150.24" as="targetPoint" />
          </mxGeometry>
        </mxCell>
        <mxCell id="nuiKF1VjGRspzTlw7c-V-39" value="new Date/Time is created&lt;div&gt;for message&amp;nbsp;&lt;/div&gt;" style="text;html=1;align=center;verticalAlign=middle;resizable=0;points=[];autosize=1;strokeColor=none;fillColor=none;" parent="1" vertex="1">
          <mxGeometry x="1352" y="159.5" width="154" height="41" as="geometry" />
        </mxCell>
        <mxCell id="nuiKF1VjGRspzTlw7c-V-40" value="" style="endArrow=none;html=1;rounded=0;exitX=0.806;exitY=0.996;exitDx=0;exitDy=0;exitPerimeter=0;" parent="1" edge="1">
          <mxGeometry width="50" height="50" relative="1" as="geometry">
            <mxPoint x="1299.002" y="210" as="sourcePoint" />
            <mxPoint x="1299.17" y="150.24" as="targetPoint" />
          </mxGeometry>
        </mxCell>
        <mxCell id="nuiKF1VjGRspzTlw7c-V-41" value="" style="endArrow=none;html=1;rounded=0;exitX=0.806;exitY=0.996;exitDx=0;exitDy=0;exitPerimeter=0;" parent="1" edge="1">
          <mxGeometry width="50" height="50" relative="1" as="geometry">
            <mxPoint x="1252.002" y="210" as="sourcePoint" />
            <mxPoint x="1252.17" y="150.24" as="targetPoint" />
          </mxGeometry>
        </mxCell>
        <mxCell id="nuiKF1VjGRspzTlw7c-V-42" value="" style="endArrow=none;html=1;rounded=0;exitX=0.806;exitY=0.996;exitDx=0;exitDy=0;exitPerimeter=0;" parent="1" edge="1">
          <mxGeometry width="50" height="50" relative="1" as="geometry">
            <mxPoint x="1205.002" y="210" as="sourcePoint" />
            <mxPoint x="1205.17" y="150.24" as="targetPoint" />
          </mxGeometry>
        </mxCell>
        <mxCell id="nuiKF1VjGRspzTlw7c-V-43" value="" style="endArrow=none;html=1;rounded=0;exitX=0.806;exitY=0.996;exitDx=0;exitDy=0;exitPerimeter=0;" parent="1" edge="1">
          <mxGeometry width="50" height="50" relative="1" as="geometry">
            <mxPoint x="1161.002" y="209.76" as="sourcePoint" />
            <mxPoint x="1161.17" y="150" as="targetPoint" />
          </mxGeometry>
        </mxCell>
        <mxCell id="nuiKF1VjGRspzTlw7c-V-44" value="if User_B online" style="rhombus;whiteSpace=wrap;html=1;fontColor=#000000;fillColor=#ffffc0;strokeColor=#ff0000;" parent="1" vertex="1">
          <mxGeometry x="1475" y="405" width="261" height="213" as="geometry" />
        </mxCell>
        <mxCell id="nuiKF1VjGRspzTlw7c-V-45" value="no" style="edgeStyle=orthogonalEdgeStyle;html=1;align=left;verticalAlign=bottom;endArrow=open;endSize=8;strokeColor=#ff0000;rounded=0;entryX=0.5;entryY=1;entryDx=0;entryDy=0;entryPerimeter=0;" parent="1" source="nuiKF1VjGRspzTlw7c-V-44" target="nuiKF1VjGRspzTlw7c-V-34" edge="1">
          <mxGeometry x="-0.9309" y="10" relative="1" as="geometry">
            <mxPoint x="1981" y="365" as="targetPoint" />
            <mxPoint as="offset" />
          </mxGeometry>
        </mxCell>
        <mxCell id="nuiKF1VjGRspzTlw7c-V-46" value="yes" style="edgeStyle=orthogonalEdgeStyle;html=1;align=left;verticalAlign=top;endArrow=open;endSize=8;strokeColor=#ff0000;rounded=0;exitX=0.5;exitY=1;exitDx=0;exitDy=0;entryX=0.75;entryY=0;entryDx=0;entryDy=0;" parent="1" source="nuiKF1VjGRspzTlw7c-V-44" target="nuiKF1VjGRspzTlw7c-V-4" edge="1">
          <mxGeometry x="-0.9752" y="13" relative="1" as="geometry">
            <mxPoint x="430" y="550" as="targetPoint" />
            <Array as="points">
              <mxPoint x="1606" y="752" />
              <mxPoint x="1346" y="752" />
              <mxPoint x="1346" y="420" />
            </Array>
            <mxPoint as="offset" />
          </mxGeometry>
        </mxCell>
        <mxCell id="nuiKF1VjGRspzTlw7c-V-47" value="save unseen notification for User_B" style="text;html=1;align=center;verticalAlign=middle;resizable=0;points=[];autosize=1;strokeColor=none;fillColor=none;" parent="1" vertex="1">
          <mxGeometry x="2224" y="529" width="207" height="26" as="geometry" />
        </mxCell>
        <mxCell id="nuiKF1VjGRspzTlw7c-V-91" value="&lt;font style=&quot;font-size: 14px;&quot;&gt;userSocketIds maps contains socket.id for each connected user._id&amp;nbsp;&lt;/font&gt;" style="text;html=1;align=center;verticalAlign=middle;resizable=0;points=[];autosize=1;strokeColor=none;fillColor=none;" parent="1" vertex="1">
          <mxGeometry x="1804" y="-531" width="440" height="29" as="geometry" />
        </mxCell>
        <mxCell id="nuiKF1VjGRspzTlw7c-V-92" value="&lt;span style=&quot;font-weight: 400;&quot;&gt;&lt;font style=&quot;font-size: 18px;&quot;&gt;userSocketIds&lt;/font&gt;&lt;/span&gt;" style="shape=table;startSize=30;container=1;collapsible=1;childLayout=tableLayout;fixedRows=1;rowLines=0;fontStyle=1;align=center;resizeLast=1;html=1;" parent="1" vertex="1">
          <mxGeometry x="1934" y="-491" width="180" height="150" as="geometry" />
        </mxCell>
        <mxCell id="nuiKF1VjGRspzTlw7c-V-93" value="" style="shape=tableRow;horizontal=0;startSize=0;swimlaneHead=0;swimlaneBody=0;fillColor=none;collapsible=0;dropTarget=0;points=[[0,0.5],[1,0.5]];portConstraint=eastwest;top=0;left=0;right=0;bottom=1;" parent="nuiKF1VjGRspzTlw7c-V-92" vertex="1">
          <mxGeometry y="30" width="180" height="30" as="geometry" />
        </mxCell>
        <mxCell id="nuiKF1VjGRspzTlw7c-V-94" value="_id" style="shape=partialRectangle;connectable=0;fillColor=none;top=0;left=0;bottom=0;right=0;fontStyle=1;overflow=hidden;whiteSpace=wrap;html=1;" parent="nuiKF1VjGRspzTlw7c-V-93" vertex="1">
          <mxGeometry width="30" height="30" as="geometry">
            <mxRectangle width="30" height="30" as="alternateBounds" />
          </mxGeometry>
        </mxCell>
        <mxCell id="nuiKF1VjGRspzTlw7c-V-95" value="socket.id" style="shape=partialRectangle;connectable=0;fillColor=none;top=0;left=0;bottom=0;right=0;align=left;spacingLeft=6;fontStyle=5;overflow=hidden;whiteSpace=wrap;html=1;" parent="nuiKF1VjGRspzTlw7c-V-93" vertex="1">
          <mxGeometry x="30" width="150" height="30" as="geometry">
            <mxRectangle width="150" height="30" as="alternateBounds" />
          </mxGeometry>
        </mxCell>
        <mxCell id="nuiKF1VjGRspzTlw7c-V-96" value="" style="shape=tableRow;horizontal=0;startSize=0;swimlaneHead=0;swimlaneBody=0;fillColor=none;collapsible=0;dropTarget=0;points=[[0,0.5],[1,0.5]];portConstraint=eastwest;top=0;left=0;right=0;bottom=0;" parent="nuiKF1VjGRspzTlw7c-V-92" vertex="1">
          <mxGeometry y="60" width="180" height="30" as="geometry" />
        </mxCell>
        <mxCell id="nuiKF1VjGRspzTlw7c-V-97" value="1" style="shape=partialRectangle;connectable=0;fillColor=none;top=0;left=0;bottom=0;right=0;editable=1;overflow=hidden;whiteSpace=wrap;html=1;" parent="nuiKF1VjGRspzTlw7c-V-96" vertex="1">
          <mxGeometry width="30" height="30" as="geometry">
            <mxRectangle width="30" height="30" as="alternateBounds" />
          </mxGeometry>
        </mxCell>
        <mxCell id="nuiKF1VjGRspzTlw7c-V-98" value="socket.id" style="shape=partialRectangle;connectable=0;fillColor=none;top=0;left=0;bottom=0;right=0;align=left;spacingLeft=6;overflow=hidden;whiteSpace=wrap;html=1;" parent="nuiKF1VjGRspzTlw7c-V-96" vertex="1">
          <mxGeometry x="30" width="150" height="30" as="geometry">
            <mxRectangle width="150" height="30" as="alternateBounds" />
          </mxGeometry>
        </mxCell>
        <mxCell id="nuiKF1VjGRspzTlw7c-V-99" value="" style="shape=tableRow;horizontal=0;startSize=0;swimlaneHead=0;swimlaneBody=0;fillColor=none;collapsible=0;dropTarget=0;points=[[0,0.5],[1,0.5]];portConstraint=eastwest;top=0;left=0;right=0;bottom=0;" parent="nuiKF1VjGRspzTlw7c-V-92" vertex="1">
          <mxGeometry y="90" width="180" height="30" as="geometry" />
        </mxCell>
        <mxCell id="nuiKF1VjGRspzTlw7c-V-100" value="2" style="shape=partialRectangle;connectable=0;fillColor=none;top=0;left=0;bottom=0;right=0;editable=1;overflow=hidden;whiteSpace=wrap;html=1;" parent="nuiKF1VjGRspzTlw7c-V-99" vertex="1">
          <mxGeometry width="30" height="30" as="geometry">
            <mxRectangle width="30" height="30" as="alternateBounds" />
          </mxGeometry>
        </mxCell>
        <mxCell id="nuiKF1VjGRspzTlw7c-V-101" value="socket.id" style="shape=partialRectangle;connectable=0;fillColor=none;top=0;left=0;bottom=0;right=0;align=left;spacingLeft=6;overflow=hidden;whiteSpace=wrap;html=1;" parent="nuiKF1VjGRspzTlw7c-V-99" vertex="1">
          <mxGeometry x="30" width="150" height="30" as="geometry">
            <mxRectangle width="150" height="30" as="alternateBounds" />
          </mxGeometry>
        </mxCell>
        <mxCell id="nuiKF1VjGRspzTlw7c-V-102" value="" style="shape=tableRow;horizontal=0;startSize=0;swimlaneHead=0;swimlaneBody=0;fillColor=none;collapsible=0;dropTarget=0;points=[[0,0.5],[1,0.5]];portConstraint=eastwest;top=0;left=0;right=0;bottom=0;" parent="nuiKF1VjGRspzTlw7c-V-92" vertex="1">
          <mxGeometry y="120" width="180" height="30" as="geometry" />
        </mxCell>
        <mxCell id="nuiKF1VjGRspzTlw7c-V-103" value="" style="shape=partialRectangle;connectable=0;fillColor=none;top=0;left=0;bottom=0;right=0;editable=1;overflow=hidden;whiteSpace=wrap;html=1;" parent="nuiKF1VjGRspzTlw7c-V-102" vertex="1">
          <mxGeometry width="30" height="30" as="geometry">
            <mxRectangle width="30" height="30" as="alternateBounds" />
          </mxGeometry>
        </mxCell>
        <mxCell id="nuiKF1VjGRspzTlw7c-V-104" value="" style="shape=partialRectangle;connectable=0;fillColor=none;top=0;left=0;bottom=0;right=0;align=left;spacingLeft=6;overflow=hidden;whiteSpace=wrap;html=1;" parent="nuiKF1VjGRspzTlw7c-V-102" vertex="1">
          <mxGeometry x="30" width="150" height="30" as="geometry">
            <mxRectangle width="150" height="30" as="alternateBounds" />
          </mxGeometry>
        </mxCell>
        <mxCell id="nuiKF1VjGRspzTlw7c-V-112" style="edgeStyle=orthogonalEdgeStyle;rounded=0;orthogonalLoop=1;jettySize=auto;html=1;exitX=0;exitY=0.5;exitDx=0;exitDy=0;entryX=1;entryY=0;entryDx=0;entryDy=0;" parent="1" source="nuiKF1VjGRspzTlw7c-V-99" target="nuiKF1VjGRspzTlw7c-V-44" edge="1">
          <mxGeometry relative="1" as="geometry">
            <mxPoint x="1821" y="267" as="targetPoint" />
          </mxGeometry>
        </mxCell>
        <mxCell id="nuiKF1VjGRspzTlw7c-V-113" value="get socket.id of User_B" style="edgeLabel;html=1;align=center;verticalAlign=middle;resizable=0;points=[];" parent="nuiKF1VjGRspzTlw7c-V-112" vertex="1" connectable="0">
          <mxGeometry x="0.7401" y="13" relative="1" as="geometry">
            <mxPoint x="52" y="22" as="offset" />
          </mxGeometry>
        </mxCell>
        <mxCell id="nuiKF1VjGRspzTlw7c-V-115" value="" style="endArrow=classic;html=1;rounded=0;entryX=1;entryY=0.5;entryDx=0;entryDy=0;exitX=0.75;exitY=1;exitDx=0;exitDy=0;" parent="1" source="nuiKF1VjGRspzTlw7c-V-4" target="nuiKF1VjGRspzTlw7c-V-2" edge="1">
          <mxGeometry width="50" height="50" relative="1" as="geometry">
            <mxPoint x="11" y="444" as="sourcePoint" />
            <mxPoint x="61" y="394" as="targetPoint" />
          </mxGeometry>
        </mxCell>
        <mxCell id="nuiKF1VjGRspzTlw7c-V-116" value="&lt;span style=&quot;color: rgb(240, 240, 240); font-family: Helvetica; font-size: 12px; font-style: normal; font-variant-ligatures: normal; font-variant-caps: normal; font-weight: 400; letter-spacing: normal; orphans: 2; text-align: center; text-indent: 0px; text-transform: none; widows: 2; word-spacing: 0px; -webkit-text-stroke-width: 0px; white-space: nowrap; background-color: rgb(24, 20, 29); text-decoration-thickness: initial; text-decoration-style: initial; text-decoration-color: initial; display: inline !important; float: none;&quot;&gt;User_A message received by User_B&lt;/span&gt;" style="text;whiteSpace=wrap;html=1;rotation=-23;" parent="1" vertex="1">
          <mxGeometry x="-31" y="434" width="205" height="36" as="geometry" />
        </mxCell>
        <mxCell id="nuiKF1VjGRspzTlw7c-V-118" value="&lt;font style=&quot;font-size: 14px;&quot;&gt;each message have two text:&lt;/font&gt;&lt;div&gt;&lt;font style=&quot;font-size: 14px;&quot;&gt;fromText: encrypted with sender public key&lt;/font&gt;&lt;/div&gt;&lt;div&gt;&lt;font style=&quot;font-size: 14px;&quot;&gt;toText: encrypted with reciever public key&lt;/font&gt;&lt;/div&gt;&lt;div&gt;&lt;font style=&quot;font-size: 14px;&quot;&gt;&lt;br&gt;&lt;/font&gt;&lt;/div&gt;&lt;div&gt;&lt;font style=&quot;font-size: 14px;&quot;&gt;&lt;i&gt;only toText is send as text to reciever&lt;/i&gt;&lt;/font&gt;&lt;/div&gt;" style="rounded=1;whiteSpace=wrap;html=1;" parent="1" vertex="1">
          <mxGeometry x="1332" y="767" width="296" height="117" as="geometry" />
        </mxCell>
        <mxCell id="nuiKF1VjGRspzTlw7c-V-119" value="&lt;font style=&quot;font-size: 14px;&quot;&gt;Get channel as per chat.id&lt;/font&gt;" style="rounded=1;whiteSpace=wrap;html=1;" parent="1" vertex="1">
          <mxGeometry x="764" y="152" width="120" height="60" as="geometry" />
        </mxCell>
        <mxCell id="nuiKF1VjGRspzTlw7c-V-120" style="edgeStyle=orthogonalEdgeStyle;rounded=0;orthogonalLoop=1;jettySize=auto;html=1;exitX=0;exitY=0.5;exitDx=0;exitDy=0;entryX=0.5;entryY=0;entryDx=0;entryDy=0;" parent="1" source="nuiKF1VjGRspzTlw7c-V-21" target="nuiKF1VjGRspzTlw7c-V-119" edge="1">
          <mxGeometry relative="1" as="geometry" />
        </mxCell>
      </root>
    </mxGraphModel>
  </diagram>
</mxfile>
